<?xml version="1.0" standalone="no"?>
<!DOCTYPE svg PUBLIC "-//W3C//DTD SVG 20010904//EN"
 "http://www.w3.org/TR/2001/REC-SVG-20010904/DTD/svg10.dtd">
<svg version="1.0" xmlns="http://www.w3.org/2000/svg"
 width="512.000000pt" height="512.000000pt" viewBox="0 0 512.000000 512.000000"
 preserveAspectRatio="xMidYMid meet">
<metadata>
Created by potrace 1.11, written by Peter Selinger 2001-2013
</metadata>
<g transform="translate(0.000000,512.000000) scale(0.100000,-0.100000)"
fill="#000000" stroke="none">
<path d="M3428 4275 c-3 -3 -162 -33 -278 -51 -169 -28 -211 -45 -237 -95 -31
-59 -8 -124 53 -155 44 -22 48 -22 274 21 33 7 68 13 175 31 50 9 101 21 115
26 42 18 65 57 64 111 0 40 -6 53 -32 80 -26 25 -40 31 -81 33 -27 1 -51 1
-53 -1z"/>
<path d="M1941 4183 c-65 -32 -65 -30 -66 -422 -1 -387 0 -393 57 -434 22 -17
44 -20 130 -21 l102 -1 1 -48 c1 -27 -1 -50 -4 -51 -4 -2 -38 -7 -77 -10 -39
-4 -82 -9 -95 -11 -66 -13 -89 -17 -94 -16 -14 2 -216 -74 -255 -97 -112 -64
-158 -113 -192 -202 -16 -42 -17 -132 -18 -1188 0 -1246 -3 -1174 56 -1221 27
-21 31 -21 789 -21 503 0 772 4 791 10 16 6 38 23 49 38 20 27 20 43 20 1197
l0 1170 -25 49 c-56 109 -242 221 -435 262 -48 10 -134 24 -180 29 -94 11 -92
9 -90 62 l1 48 103 2 c110 1 136 11 168 60 16 24 18 61 18 382 0 392 -1 398
-63 431 -27 15 -71 17 -346 17 -256 0 -320 -3 -345 -14z m510 -232 c7 -39 2
-394 -5 -399 -8 -4 -145 -5 -311 -2 -19 0 -20 7 -20 203 l0 203 168 1 c92 0
167 -3 168 -6z m34 -995 c198 -32 325 -76 388 -134 26 -24 27 -30 27 -117 l0
-91 -616 0 -616 -1 4 100 c2 70 7 102 16 105 7 2 18 10 25 17 47 46 224 103
382 121 28 4 51 7 53 9 6 5 298 -2 337 -9z m392 -585 l22 -1 0 -530 c0 -291
-3 -530 -7 -531 -4 0 -279 -1 -612 -1 l-605 -1 -2 531 c-2 488 -1 531 14 534
13 2 1109 1 1190 -1z m22 -1498 l1 -193 -615 0 -615 0 0 193 1 194 614 -1 614
0 0 -193z"/>
<path d="M3137 3869 c-42 -11 -67 -29 -82 -59 -29 -56 -16 -119 33 -155 25
-19 44 -20 259 -22 142 -1 245 2 263 9 63 22 97 105 66 162 -36 66 -44 68
-292 69 -123 1 -235 -1 -247 -4z"/>
<path d="M2983 3543 c-12 -2 -36 -20 -53 -39 -34 -39 -40 -86 -16 -133 22 -42
53 -57 151 -75 50 -8 101 -18 115 -20 161 -32 272 -49 302 -49 42 1 93 33 103
63 4 11 11 17 17 14 6 -4 9 -3 6 2 -4 5 -9 26 -12 48 -12 75 -46 101 -161 121
-16 3 -82 15 -145 26 -63 11 -150 26 -194 34 -43 8 -81 14 -85 14 -3 -1 -16
-4 -28 -6z"/>
</g>
</svg>
